<svg width="50" height="44" viewBox="0 0 50 44" fill="none" xmlns="http://www.w3.org/2000/svg">
<rect x="9.56055" y="10.6484" width="31.3887" height="20.739" fill="#7294B4"/>
<rect x="27.4968" y="4.48242" width="17.9364" height="20.739" fill="#7294B4"/>
<rect x="18.5283" y="26.9033" width="13.4523" height="12.3313" fill="#7294B4"/>
<rect x="5.07642" y="4.48438" width="17.9364" height="20.739" fill="#7294B4"/>
<rect x="23.0127" y="8.96777" width="4.48411" height="4.48411" fill="white"/>
<rect x="27.4976" y="4.4834" width="4.48411" height="4.48411" fill="white"/>
<rect x="31.9814" width="4.48411" height="4.48411" fill="white"/>
<rect width="4.48411" height="4.48411" transform="matrix(-1 0 0 1 18.5288 0)" fill="white"/>
<rect x="36.4653" width="4.48411" height="4.48411" fill="white"/>
<rect width="4.48411" height="4.48411" transform="matrix(-1 0 0 1 14.0442 0)" fill="white"/>
<rect x="40.9492" y="4.4834" width="4.48411" height="4.48411" fill="white"/>
<rect width="4.48411" height="4.48411" transform="matrix(-1 0 0 1 9.56104 4.4834)" fill="white"/>
<rect x="45.4336" y="8.96777" width="4.48411" height="4.48411" fill="white"/>
<rect width="4.48411" height="4.48411" transform="matrix(-1 0 0 1 5.07642 8.96777)" fill="white"/>
<rect x="45.4336" y="13.4521" width="4.48411" height="4.48411" fill="white"/>
<rect width="4.48411" height="4.48411" transform="matrix(-1 0 0 1 5.07642 13.4521)" fill="white"/>
<rect x="45.4336" y="17.937" width="4.48411" height="4.48411" fill="white"/>
<rect width="4.48411" height="4.48411" transform="matrix(-1 0 0 1 5.07642 17.937)" fill="white"/>
<rect x="40.9492" y="22.4209" width="4.48411" height="4.48411" fill="white"/>
<rect width="4.48411" height="4.48411" transform="matrix(-1 0 0 1 9.56104 22.4209)" fill="white"/>
<rect x="36.4653" y="27.1851" width="4.48411" height="4.48411" fill="white"/>
<rect width="4.48411" height="4.48411" transform="matrix(-1 0 0 1 14.0442 27.1851)" fill="white"/>
<rect x="31.9814" y="31.3887" width="4.48411" height="4.48411" fill="white"/>
<rect width="4.48411" height="4.48411" transform="matrix(-1 0 0 1 18.5288 31.3887)" fill="white"/>
<rect x="27.4976" y="35.0317" width="4.48411" height="4.48411" fill="white"/>
<rect width="4.48411" height="4.48411" transform="matrix(-1 0 0 1 23.0127 35.0317)" fill="white"/>
<rect x="23.0127" y="39.5161" width="4.48411" height="4.48411" fill="white"/>
<rect x="18.5288" y="4.4834" width="4.48411" height="4.48411" fill="white"/>
<rect x="11.803" y="7.84668" width="4.48411" height="4.48411" fill="white"/>
<rect x="7.3186" y="12.3301" width="4.48411" height="4.48411" fill="white"/>
<rect x="7.3186" y="15.6938" width="4.48411" height="4.48411" fill="white"/>
</svg>
