<svg width="112" height="43" viewBox="0 0 112 43" fill="none" xmlns="http://www.w3.org/2000/svg">
<rect y="20.415" width="96.6464" height="19.7172" fill="#7294B4"/>
<path d="M6.46304 34.819L8.41945 34.7998L8.43858 36.7562L4.52576 36.7945L4.50662 34.8381L2.55021 34.8572L2.47368 27.0316L6.3865 26.9933L6.46304 34.819ZM10.2993 26.955L10.3759 34.7807L8.41945 34.7998L8.34292 26.9742L10.2993 26.955ZM16.1686 26.8976L16.2451 34.7233L14.2887 34.7424L14.3078 36.6988L10.395 36.7371L10.3759 34.7807L12.3323 34.7616L12.2557 26.9359L16.1686 26.8976ZM23.9751 24.8647L23.9559 22.9083L27.8688 22.87L27.8879 24.8264L23.9751 24.8647ZM20.1771 36.6414L20.1579 34.685L24.0707 34.6468L24.0133 28.7775L22.0569 28.7967L22.0378 26.8402L27.907 26.7828L27.9836 34.6085L31.8964 34.5702L31.9155 36.5266L20.1771 36.6414ZM33.8719 36.5075L33.8528 34.5511L43.6349 34.4554L43.6157 32.499L35.7901 32.5755L35.771 30.6191L33.8145 30.6383L33.7954 28.6819L35.7518 28.6627L35.7327 26.7063L45.5148 26.6106L45.5339 28.5671L37.7082 28.6436L37.7274 30.6L45.553 30.5235L45.5722 32.4799L47.5286 32.4607L47.5477 34.4172L45.5913 34.4363L45.6104 36.3927L33.8719 36.5075ZM51.4797 36.3353L51.4605 34.3789L49.5041 34.398L49.4467 28.5288L51.4031 28.5097L51.384 26.5532L59.2096 26.4767L59.1714 22.5639L63.0842 22.5256L63.2181 36.2205L51.4797 36.3353ZM53.4169 34.3598L59.2862 34.3024L59.2288 28.4331L53.3595 28.4905L53.4169 34.3598ZM67.131 36.1822L67.1118 34.2258L65.1554 34.245L65.098 28.3757L67.0544 28.3566L67.0353 26.4002L76.8174 26.3045L76.8365 28.2609L78.7929 28.2418L78.8503 34.111L76.8939 34.1302L76.913 36.0866L67.131 36.1822ZM69.0682 34.2067L74.9375 34.1493L74.8801 28.2801L69.0108 28.3375L69.0682 34.2067ZM80.8258 36.0483L80.7302 26.2662L92.4687 26.1514L92.4878 28.1079L94.4442 28.0887L94.5207 35.9144L90.6079 35.9526L90.5314 28.127L88.575 28.1461L88.6515 35.9718L84.7387 36.01L84.6621 28.1844L82.7057 28.2035L82.7823 36.0292L80.8258 36.0483Z" fill="white"/>
<path d="M107.92 7.24334C107.121 6.24465 105.802 5.96501 104.724 6.48433C104.125 5.84517 103.286 5.56553 102.447 5.68538V2.72924C102.447 1.29112 101.248 0.0527344 99.8103 0.0527344C98.3322 0.0527344 97.1737 1.29112 97.1737 2.72924V9.20078C96.3747 8.8812 95.416 9.00104 94.6969 9.56031C93.4985 10.3992 93.2588 12.077 94.0977 13.2755L98.492 19.4274C98.9714 20.1065 99.7703 20.506 100.649 20.506H107.76C108.998 20.506 110.037 19.6671 110.317 18.4687L111.435 13.7149C111.475 13.5151 111.475 13.3154 111.515 13.0757V9.7201C111.515 7.88251 109.637 6.56423 107.92 7.24334ZM96.8142 11.2381L97.9327 12.7561C98.2922 13.2755 99.0912 13.0358 99.0912 12.3966V2.72924C99.0912 1.73054 100.529 1.73054 100.529 2.72924V9.7201C100.529 10.0796 100.809 10.3593 101.168 10.3593H101.448C101.808 10.3593 102.087 10.0796 102.087 9.7201V8.32193C102.087 7.32324 103.565 7.32324 103.565 8.32193V9.7201C103.565 10.0796 103.845 10.3593 104.205 10.3593H104.484C104.804 10.3593 105.123 10.0796 105.123 9.7201V8.8812C105.123 7.88251 106.561 7.88251 106.561 8.8812V9.7201C106.561 10.0796 106.841 10.3593 107.201 10.3593H107.48C107.84 10.3593 108.119 10.0796 108.119 9.7201C108.119 8.72141 109.558 8.72141 109.558 9.7201V13.0757C109.558 13.1556 109.558 13.1956 109.558 13.2755L108.479 18.0292C108.399 18.3888 108.079 18.5885 107.76 18.5885H100.649C100.409 18.5885 100.17 18.5086 100.05 18.3089L95.6557 12.1569C95.0964 11.358 96.2549 10.4392 96.8142 11.2381ZM100.649 16.0319C100.649 16.3914 100.889 16.671 101.208 16.671H101.448C101.728 16.671 102.007 16.3914 102.007 16.0319V12.1969C102.007 11.8773 101.728 11.5577 101.448 11.5577H101.208C100.889 11.5577 100.649 11.8773 100.649 12.1969V16.0319ZM103.645 16.0319C103.645 16.3914 103.885 16.671 104.205 16.671H104.444C104.764 16.671 105.003 16.3914 105.003 16.0319V12.1969C105.003 11.8773 104.764 11.5577 104.444 11.5577H104.205C103.885 11.5577 103.645 11.8773 103.645 12.1969V16.0319ZM106.681 16.0319C106.681 16.3914 106.921 16.671 107.241 16.671H107.48C107.76 16.671 108.04 16.3914 108.04 16.0319V12.1969C108.04 11.8773 107.76 11.5577 107.48 11.5577H107.241C106.921 11.5577 106.681 11.8773 106.681 12.1969V16.0319Z" fill="black"/>
<path fill-rule="evenodd" clip-rule="evenodd" d="M96.8142 11.2381L97.9327 12.7561C98.2922 13.2755 99.0912 13.0358 99.0912 12.3966V2.72924C99.0912 1.73054 100.529 1.73054 100.529 2.72924V9.7201C100.529 10.0796 100.809 10.3593 101.168 10.3593H101.448C101.808 10.3593 102.087 10.0796 102.087 9.7201V8.32193C102.087 7.32324 103.565 7.32324 103.565 8.32193V9.7201C103.565 10.0796 103.845 10.3593 104.205 10.3593H104.484C104.804 10.3593 105.123 10.0796 105.123 9.7201V8.8812C105.123 7.88251 106.561 7.88251 106.561 8.8812V9.7201C106.561 10.0796 106.841 10.3593 107.201 10.3593H107.48C107.84 10.3593 108.119 10.0796 108.119 9.7201C108.119 8.72141 109.558 8.72141 109.558 9.7201V13.0757V13.2755L108.479 18.0292C108.399 18.3888 108.079 18.5885 107.76 18.5885H100.649C100.409 18.5885 100.17 18.5086 100.05 18.3089L95.6557 12.1569C95.0964 11.358 96.2549 10.4392 96.8142 11.2381ZM101.208 16.671C100.889 16.671 100.649 16.3914 100.649 16.0319V12.1969C100.649 11.8773 100.889 11.5577 101.208 11.5577H101.448C101.728 11.5577 102.007 11.8773 102.007 12.1969V16.0319C102.007 16.3914 101.728 16.671 101.448 16.671H101.208ZM104.205 16.671C103.885 16.671 103.645 16.3914 103.645 16.0319V12.1969C103.645 11.8773 103.885 11.5577 104.205 11.5577H104.444C104.764 11.5577 105.003 11.8773 105.003 12.1969V16.0319C105.003 16.3914 104.764 16.671 104.444 16.671H104.205ZM107.241 16.671C106.921 16.671 106.681 16.3914 106.681 16.0319V12.1969C106.681 11.8773 106.921 11.5577 107.241 11.5577H107.48C107.76 11.5577 108.04 11.8773 108.04 12.1969V16.0319C108.04 16.3914 107.76 16.671 107.48 16.671H107.241Z" fill="white"/>
</svg>
