<svg width="128" height="43" viewBox="0 0 128 43" fill="none" xmlns="http://www.w3.org/2000/svg">
<rect y="20.5859" width="113.216" height="19.8259" fill="#7294B4"/>
<path d="M7.56537 34.586H9.52188V36.5425H5.60887V34.586H3.65236V26.76H7.56537V34.586ZM11.4784 26.76V34.586H9.52188V26.76H11.4784ZM17.3479 26.76V34.586H15.3914V36.5425H11.4784V34.586H13.4349V26.76H17.3479ZM21.2609 36.5425V34.586H19.3044V28.7165H21.2609V26.76H31.0434V28.7165H33V32.6295H23.2174V34.586H31.0434V36.5425H21.2609ZM23.2174 30.673H29.0869V28.7165H23.2174V30.673ZM36.913 36.5425V34.586H40.826V24.8035H38.8695V22.847H44.739V34.586H48.652V36.5425H36.913ZM52.565 36.5425V34.586H50.6085V28.7165H52.565V26.76H64.304V28.7165H54.5215V34.586H64.304V36.5425H52.565ZM68.2171 36.5425V34.586H66.2606V28.7165H68.2171V26.76H77.9996V28.7165H79.9561V34.586H77.9996V36.5425H68.2171ZM70.1736 34.586H76.0431V28.7165H70.1736V34.586ZM81.9126 36.5425V26.76H93.6516V28.7165H95.6081V36.5425H91.6951V28.7165H89.7386V36.5425H85.8256V28.7165H83.8691V36.5425H81.9126ZM99.5212 36.5425V34.586H97.5647V28.7165H99.5212V26.76H109.304V28.7165H111.26V32.6295H101.478V34.586H109.304V36.5425H99.5212ZM101.478 30.673H107.347V28.7165H101.478V30.673Z" fill="white"/>
<path d="M124.405 7.42596C123.606 6.42726 122.287 6.14763 121.209 6.66695C120.609 6.02778 119.771 5.74815 118.932 5.86799V2.91185C118.932 1.47373 117.733 0.235352 116.295 0.235352C114.817 0.235352 113.659 1.47373 113.659 2.91185V9.3834C112.86 9.06382 111.901 9.18366 111.182 9.74293C109.983 10.5818 109.744 12.2596 110.583 13.4581L114.977 19.61C115.456 20.2892 116.255 20.6886 117.134 20.6886H124.245C125.483 20.6886 126.522 19.8497 126.801 18.6513L127.92 13.8975C127.96 13.6978 127.96 13.498 128 13.2583V9.90272C128 8.06512 126.122 6.74684 124.405 7.42596ZM113.299 11.4207L114.418 12.9388C114.777 13.4581 115.576 13.2184 115.576 12.5792V2.91185C115.576 1.91316 117.014 1.91316 117.014 2.91185V9.90272C117.014 10.2623 117.294 10.5419 117.653 10.5419H117.933C118.293 10.5419 118.572 10.2623 118.572 9.90272V8.50455C118.572 7.50585 120.05 7.50585 120.05 8.50455V9.90272C120.05 10.2623 120.33 10.5419 120.689 10.5419H120.969C121.289 10.5419 121.608 10.2623 121.608 9.90272V9.06382C121.608 8.06512 123.046 8.06512 123.046 9.06382V9.90272C123.046 10.2623 123.326 10.5419 123.685 10.5419H123.965C124.325 10.5419 124.604 10.2623 124.604 9.90272C124.604 8.90403 126.042 8.90403 126.042 9.90272V13.2583C126.042 13.3382 126.042 13.3782 126.042 13.4581L124.964 18.2119C124.884 18.5714 124.564 18.7711 124.245 18.7711H117.134C116.894 18.7711 116.655 18.6912 116.535 18.4915L112.141 12.3395C111.581 11.5406 112.74 10.6218 113.299 11.4207ZM117.134 16.2145C117.134 16.574 117.374 16.8536 117.693 16.8536H117.933C118.213 16.8536 118.492 16.574 118.492 16.2145V12.3795C118.492 12.0599 118.213 11.7403 117.933 11.7403H117.693C117.374 11.7403 117.134 12.0599 117.134 12.3795V16.2145ZM120.13 16.2145C120.13 16.574 120.37 16.8536 120.689 16.8536H120.929C121.249 16.8536 121.488 16.574 121.488 16.2145V12.3795C121.488 12.0599 121.249 11.7403 120.929 11.7403H120.689C120.37 11.7403 120.13 12.0599 120.13 12.3795V16.2145ZM123.166 16.2145C123.166 16.574 123.406 16.8536 123.725 16.8536H123.965C124.245 16.8536 124.524 16.574 124.524 16.2145V12.3795C124.524 12.0599 124.245 11.7403 123.965 11.7403H123.725C123.406 11.7403 123.166 12.0599 123.166 12.3795V16.2145Z" fill="black"/>
<path fill-rule="evenodd" clip-rule="evenodd" d="M113.299 11.4207L114.418 12.9388C114.777 13.4581 115.576 13.2184 115.576 12.5792V2.91185C115.576 1.91316 117.014 1.91316 117.014 2.91185V9.90272C117.014 10.2623 117.294 10.5419 117.653 10.5419H117.933C118.293 10.5419 118.572 10.2623 118.572 9.90272V8.50455C118.572 7.50585 120.05 7.50585 120.05 8.50455V9.90272C120.05 10.2623 120.33 10.5419 120.689 10.5419H120.969C121.289 10.5419 121.608 10.2623 121.608 9.90272V9.06382C121.608 8.06512 123.046 8.06512 123.046 9.06382V9.90272C123.046 10.2623 123.326 10.5419 123.685 10.5419H123.965C124.325 10.5419 124.604 10.2623 124.604 9.90272C124.604 8.90403 126.042 8.90403 126.042 9.90272V13.2583V13.4581L124.964 18.2119C124.884 18.5714 124.564 18.7711 124.245 18.7711H117.134C116.894 18.7711 116.655 18.6912 116.535 18.4915L112.141 12.3395C111.581 11.5406 112.74 10.6218 113.299 11.4207ZM117.693 16.8536C117.374 16.8536 117.134 16.574 117.134 16.2145V12.3795C117.134 12.0599 117.374 11.7403 117.693 11.7403H117.933C118.213 11.7403 118.492 12.0599 118.492 12.3795V16.2145C118.492 16.574 118.213 16.8536 117.933 16.8536H117.693ZM120.689 16.8536C120.37 16.8536 120.13 16.574 120.13 16.2145V12.3795C120.13 12.0599 120.37 11.7403 120.689 11.7403H120.929C121.249 11.7403 121.488 12.0599 121.488 12.3795V16.2145C121.488 16.574 121.249 16.8536 120.929 16.8536H120.689ZM123.725 16.8536C123.406 16.8536 123.166 16.574 123.166 16.2145V12.3795C123.166 12.0599 123.406 11.7403 123.725 11.7403H123.965C124.245 11.7403 124.524 12.0599 124.524 12.3795V16.2145C124.524 16.574 124.245 16.8536 123.965 16.8536H123.725Z" fill="white"/>
</svg>
