<svg width="81" height="43" viewBox="0 0 81 43" fill="none" xmlns="http://www.w3.org/2000/svg">
<rect y="20.7588" width="65.9394" height="19.7172" fill="#7294B4"/>
<path d="M7.01774 34.7442H8.97424V36.7007H5.06123V34.7442H3.10472V26.9182H7.01774V34.7442ZM10.9307 26.9182V34.7442H8.97424V26.9182H10.9307ZM16.8003 26.9182V34.7442H14.8438V36.7007H10.9307V34.7442H12.8873V26.9182H16.8003ZM20.7133 36.7007V34.7442H18.7568V28.8747H20.7133V26.9182H30.4958V28.8747H32.4523V34.7442H30.4958V36.7007H20.7133ZM22.6698 34.7442H28.5393V28.8747H22.6698V34.7442ZM40.2783 28.8747H42.2348V30.8312H40.2783V36.7007H36.3653V26.9182H40.2783V28.8747ZM48.1044 26.9182V28.8747H42.2348V26.9182H48.1044ZM50.0609 36.7007V23.0052H53.9739V30.8312H57.8869V28.8747H59.8434V26.9182H63.7564V28.8747H61.7999V30.8312H59.8434V32.7877H61.7999V34.7442H63.7564V36.7007H59.8434V34.7442H57.8869V32.7877H53.9739V36.7007H50.0609Z" fill="white"/>
<path d="M77.2131 7.58807C76.4142 6.58937 75.0959 6.30974 74.0173 6.82906C73.4181 6.18989 72.5792 5.91026 71.7403 6.0301V3.07396C71.7403 1.63584 70.5418 0.397461 69.1037 0.397461C67.6256 0.397461 66.4672 1.63584 66.4672 3.07396V9.54551C65.6682 9.22593 64.7095 9.34577 63.9904 9.90504C62.792 10.7439 62.5523 12.4218 63.3912 13.6202L67.7854 19.7721C68.2648 20.4513 69.0638 20.8507 69.9426 20.8507H77.0533C78.2917 20.8507 79.3304 20.0118 79.61 18.8134L80.7285 14.0596C80.7685 13.8599 80.7685 13.6601 80.8084 13.4204V10.0648C80.8084 8.22723 78.9309 6.90895 77.2131 7.58807ZM66.1076 11.5828L67.2262 13.1009C67.5857 13.6202 68.3847 13.3805 68.3847 12.7413V3.07396C68.3847 2.07527 69.8228 2.07527 69.8228 3.07396V10.0648C69.8228 10.4244 70.1024 10.704 70.4619 10.704H70.7416C71.1011 10.704 71.3807 10.4244 71.3807 10.0648V8.66666C71.3807 7.66796 72.8588 7.66796 72.8588 8.66666V10.0648C72.8588 10.4244 73.1384 10.704 73.498 10.704H73.7776C74.0972 10.704 74.4168 10.4244 74.4168 10.0648V9.22593C74.4168 8.22723 75.8549 8.22723 75.8549 9.22593V10.0648C75.8549 10.4244 76.1345 10.704 76.4941 10.704H76.7737C77.1332 10.704 77.4129 10.4244 77.4129 10.0648C77.4129 9.06614 78.851 9.06614 78.851 10.0648V13.4204C78.851 13.5003 78.851 13.5403 78.851 13.6202L77.7724 18.374C77.6925 18.7335 77.3729 18.9332 77.0533 18.9332H69.9426C69.7029 18.9332 69.4632 18.8533 69.3434 18.6536L64.9491 12.5016C64.3899 11.7027 65.5484 10.7839 66.1076 11.5828ZM69.9426 16.3766C69.9426 16.7361 70.1823 17.0158 70.5019 17.0158H70.7416C71.0212 17.0158 71.3008 16.7361 71.3008 16.3766V12.5416C71.3008 12.222 71.0212 11.9024 70.7416 11.9024H70.5019C70.1823 11.9024 69.9426 12.222 69.9426 12.5416V16.3766ZM72.9387 16.3766C72.9387 16.7361 73.1784 17.0158 73.498 17.0158H73.7377C74.0572 17.0158 74.2969 16.7361 74.2969 16.3766V12.5416C74.2969 12.222 74.0572 11.9024 73.7377 11.9024H73.498C73.1784 11.9024 72.9387 12.222 72.9387 12.5416V16.3766ZM75.9747 16.3766C75.9747 16.7361 76.2144 17.0158 76.534 17.0158H76.7737C77.0533 17.0158 77.333 16.7361 77.333 16.3766V12.5416C77.333 12.222 77.0533 11.9024 76.7737 11.9024H76.534C76.2144 11.9024 75.9747 12.222 75.9747 12.5416V16.3766Z" fill="black"/>
<path fill-rule="evenodd" clip-rule="evenodd" d="M66.1076 11.5828L67.2262 13.1009C67.5857 13.6202 68.3847 13.3805 68.3847 12.7413V3.07396C68.3847 2.07527 69.8228 2.07527 69.8228 3.07396V10.0648C69.8228 10.4244 70.1024 10.704 70.4619 10.704H70.7416C71.1011 10.704 71.3807 10.4244 71.3807 10.0648V8.66666C71.3807 7.66796 72.8588 7.66796 72.8588 8.66666V10.0648C72.8588 10.4244 73.1384 10.704 73.498 10.704H73.7776C74.0972 10.704 74.4168 10.4244 74.4168 10.0648V9.22593C74.4168 8.22723 75.8549 8.22723 75.8549 9.22593V10.0648C75.8549 10.4244 76.1345 10.704 76.4941 10.704H76.7737C77.1332 10.704 77.4129 10.4244 77.4129 10.0648C77.4129 9.06614 78.851 9.06614 78.851 10.0648V13.4204V13.6202L77.7724 18.374C77.6925 18.7335 77.3729 18.9332 77.0533 18.9332H69.9426C69.7029 18.9332 69.4632 18.8533 69.3434 18.6536L64.9491 12.5016C64.3899 11.7027 65.5484 10.7839 66.1076 11.5828ZM70.5019 17.0158C70.1823 17.0158 69.9426 16.7361 69.9426 16.3766V12.5416C69.9426 12.222 70.1823 11.9024 70.5019 11.9024H70.7416C71.0212 11.9024 71.3008 12.222 71.3008 12.5416V16.3766C71.3008 16.7361 71.0212 17.0158 70.7416 17.0158H70.5019ZM73.498 17.0158C73.1784 17.0158 72.9387 16.7361 72.9387 16.3766V12.5416C72.9387 12.222 73.1784 11.9024 73.498 11.9024H73.7377C74.0572 11.9024 74.2969 12.222 74.2969 12.5416V16.3766C74.2969 16.7361 74.0572 17.0158 73.7377 17.0158H73.498ZM76.534 17.0158C76.2144 17.0158 75.9747 16.7361 75.9747 16.3766V12.5416C75.9747 12.222 76.2144 11.9024 76.534 11.9024H76.7737C77.0533 11.9024 77.333 12.222 77.333 12.5416V16.3766C77.333 16.7361 77.0533 17.0158 76.7737 17.0158H76.534Z" fill="white"/>
</svg>
