<svg width="46" height="37" viewBox="0 0 46 37" fill="none" xmlns="http://www.w3.org/2000/svg">
<path d="M7.61875 12.3574L11.2125 10.8398C11.3563 10.7676 11.4281 10.623 11.4281 10.4062C11.4281 10.2617 11.3563 10.1172 11.2125 9.97266L7.61875 8.52734L6.18125 4.91406C6.0375 4.76953 5.89375 4.625 5.75 4.625C5.53438 4.625 5.39062 4.76953 5.31875 4.91406L3.80937 8.52734L0.215625 9.97266C0.071875 10.1172 0 10.2617 0 10.4062C0 10.623 0.071875 10.7676 0.215625 10.8398L3.80937 12.3574L5.31875 15.9707C5.39062 16.1152 5.53438 16.1875 5.67812 16.1875C5.89375 16.1875 6.0375 16.1152 6.10938 15.9707L7.61875 12.3574ZM33.8531 33.8203L33.7812 33.748H33.7094C32.775 33.3145 32.2 32.375 32.2 31.2188C32.2 30.1348 32.775 29.1953 33.7094 28.7617L33.7812 28.6895H33.8531L36.5125 27.5332L37.6625 24.8594V24.7871L37.7344 24.7148C38.0219 24.1367 38.4531 23.7031 39.0281 23.4863C39.0281 23.3418 39.0281 23.2695 39.1 23.1973V10.4062C39.1 9.17773 38.0219 8.09375 36.8 8.09375C35.5063 8.09375 34.5 9.17773 34.5 10.4062V15.6094C34.5 15.9707 34.2125 16.1875 33.925 16.1875H32.775C32.4156 16.1875 32.2 15.9707 32.2 15.6094V4.625C32.2 3.39648 31.1219 2.3125 29.9 2.3125C28.6063 2.3125 27.6 3.39648 27.6 4.625V15.6094C27.6 15.9707 27.3125 16.1875 27.025 16.1875H25.875C25.5156 16.1875 25.3 15.9707 25.3 15.6094V2.3125C25.3 1.08398 24.2219 0 23 0C21.7063 0 20.7 1.08398 20.7 2.3125V15.6094C20.7 15.9707 20.4125 16.1875 20.125 16.1875H18.975C18.6156 16.1875 18.4 15.9707 18.4 15.6094V4.625C18.4 3.39648 17.3219 2.3125 16.1 2.3125C14.8063 2.3125 13.8 3.39648 13.8 4.625V22.041L12.075 19.7285C11.5719 19.0059 10.7094 18.5723 9.775 18.5723C8.12188 18.5723 6.9 19.8008 6.9 21.4629C6.9 22.041 7.04375 22.6191 7.40312 23.125L16.4594 35.627C17.1063 36.4941 18.1125 37 19.2625 37H33.4219C34.7875 37 36.0094 36.2051 36.5125 34.9766L33.8531 33.8203ZM25.0844 24.5703L23 25.4375L22.0656 27.6055C21.9938 27.75 21.9219 27.75 21.85 27.75C21.7063 27.75 21.6344 27.75 21.5625 27.6055L20.7 25.4375L18.5438 24.5703C18.4 24.498 18.3281 24.4258 18.3281 24.2812C18.3281 24.209 18.4 24.1367 18.5438 24.0645L20.7 23.125L21.5625 21.0293C21.6344 20.8848 21.7062 20.8125 21.7781 20.8125C21.9219 20.8125 21.9938 20.8848 22.0656 21.0293L23 23.125L25.0844 24.0645C25.2281 24.1367 25.3 24.209 25.3 24.2812C25.3 24.4258 25.2281 24.498 25.0844 24.5703ZM46 31.2188C45.9281 31.0742 45.8563 30.9297 45.7125 30.7852L42.1188 29.3398L40.6813 25.7266C40.5375 25.582 40.3938 25.4375 40.25 25.4375C40.0344 25.4375 39.8906 25.582 39.8188 25.7266L38.3094 29.3398L34.7156 30.7852C34.5719 30.9297 34.5 31.0742 34.5 31.2188C34.5 31.4355 34.5719 31.5801 34.7156 31.6523L38.3094 33.1699L39.8188 36.7832C39.8906 36.9277 40.0344 37 40.1781 37C40.3937 37 40.5375 36.9277 40.6094 36.7832L42.1188 33.1699L45.7125 31.6523C45.8563 31.5801 45.9281 31.4355 45.9281 31.2188H46Z" fill="black"/>
</svg>
