<svg width="45" height="40" viewBox="0 0 45 40" fill="none" xmlns="http://www.w3.org/2000/svg">
<path d="M21.056 19.1917C21.592 19.7277 22.4342 19.7277 22.9702 19.1917L31.316 10.463C33.7662 7.93632 33.613 3.72512 30.9332 1.35154C28.5596 -0.715775 25.0375 -0.332939 22.8936 1.96408L22.0514 2.80632L21.1326 1.96408C18.9887 -0.332939 15.4666 -0.715775 13.1696 1.35154C10.4131 3.72512 10.26 7.93632 12.7102 10.463L21.056 19.1917ZM43.2605 25.164C42.3417 24.3217 40.9635 24.3983 39.9681 25.164L32.9239 30.7534C32.0817 31.519 30.9332 31.8253 29.8612 31.8253H20.8263C20.1372 31.8253 19.6012 31.2893 19.6012 30.6002C19.6012 29.9877 20.1372 29.3752 20.8263 29.3752H26.7985C28.0236 29.3752 29.1721 28.6095 29.3253 27.3844C29.555 25.8531 28.4064 24.4748 26.9517 24.4748H14.7009C12.6336 24.4748 10.5663 25.2405 8.95837 26.5422L5.43627 29.3752H1.22508C0.535971 29.3752 0 29.9877 0 30.6002V37.9507C0 38.6398 0.535971 39.1758 1.22508 39.1758H28.483C29.6315 39.1758 30.7035 38.8695 31.5457 38.1038L43.1839 28.8392C44.3324 27.9204 44.409 26.1593 43.2605 25.164Z" fill="white"/>
</svg>
