<svg width="47" height="28" viewBox="0 0 47 28" fill="none" xmlns="http://www.w3.org/2000/svg">
<path d="M31.8719 0H25.5562C24.9688 0 24.4547 0.2184 24.0141 0.6552L16.7437 7.2072C15.5688 8.372 15.5687 10.192 16.5969 11.284C17.5516 12.3032 19.4609 12.5944 20.7094 11.5024C20.7094 11.5024 20.7094 11.5024 20.7828 11.5024L26.5844 6.188C27.0984 5.7512 27.8328 5.7512 28.2734 6.2608C28.7141 6.6976 28.7141 7.4256 28.2 7.8624L26.2906 9.6096L37.0125 18.2C37.1594 18.4184 37.3797 18.564 37.5266 18.7824V4.6592L33.5609 0.728C33.1203 0.2912 32.5328 0 31.8719 0ZM39.95 4.732V21.0392C39.95 22.2768 40.9781 23.3688 42.3 23.3688H47V4.732H39.95ZM43.475 21.0392C42.8141 21.0392 42.3 20.4568 42.3 19.8744C42.3 19.2192 42.8141 18.7096 43.475 18.7096C44.0625 18.7096 44.65 19.2192 44.65 19.8744C44.65 20.4568 44.0625 21.0392 43.475 21.0392ZM0 23.296H4.7C5.94844 23.296 7.05 22.2768 7.05 20.9664V4.732H0V23.296ZM3.525 18.7096C4.1125 18.7096 4.7 19.2192 4.7 19.8744C4.7 20.4568 4.1125 21.0392 3.525 21.0392C2.86406 21.0392 2.35 20.4568 2.35 19.8744C2.35 19.2192 2.86406 18.7096 3.525 18.7096ZM35.4703 20.02L24.5281 11.2112L22.325 13.1768C20.1219 15.2152 16.8172 14.9968 14.8344 12.8856C12.925 10.7744 13.0719 7.4256 15.2016 5.46L21.2234 0H15.0547C14.3938 0 13.8063 0.2912 13.3656 0.728L9.4 4.6592V20.9664H10.7219L17.3312 26.936C19.3875 28.6104 22.325 28.2464 23.9406 26.2808H24.0141L25.2625 27.3728C26.4375 28.3192 28.2 28.1736 29.1547 27.0088L31.4313 24.1696L31.8719 24.5336C32.8266 25.3344 34.2953 25.1888 35.1766 24.1696L35.8375 23.296C36.6453 22.2768 36.4984 20.8208 35.4703 20.02Z" fill="black"/>
</svg>
